<?xml version="1.0" encoding="UTF-8"?>
<svg version="1.1" xmlns="http://www.w3.org/2000/svg" width="223" height="100">
<path d="M0 0 C2.375 2.5625 2.375 2.5625 4 5 C4.78632813 4.18144531 5.57265625 3.36289062 6.3828125 2.51953125 C10.57108532 -0.9706961 14.64713892 -0.56838175 19.875 -0.3125 C20.75414062 -0.28994141 21.63328125 -0.26738281 22.5390625 -0.24414062 C24.69345007 -0.18559748 26.8469531 -0.09592783 29 0 C29.11629782 4.39561039 29.18728634 8.79082429 29.25 13.1875 C29.28351563 14.43337891 29.31703125 15.67925781 29.3515625 16.96289062 C29.36445313 18.16494141 29.37734375 19.36699219 29.390625 20.60546875 C29.41157227 21.71043701 29.43251953 22.81540527 29.45410156 23.95385742 C28.90231402 27.65528387 27.53083077 29.30935033 25 32 C25.474375 32.474375 25.94875 32.94875 26.4375 33.4375 C29.28538231 38.108027 29.35487308 43.08368538 28.375 48.375 C26.60367898 51.75661285 25.59130246 52.65326158 22 54 C17.09488261 54.66329634 12.67907033 54.86972288 8.4375 52.0625 C6 50 6 50 5 49 C4.67 50.65 4.34 52.3 4 54 C0.7 54 -2.6 54 -6 54 C-6.33 52.35 -6.66 50.7 -7 49 C-7.4640625 49.9590625 -7.4640625 49.9590625 -7.9375 50.9375 C-10.75364243 53.75364243 -13.081728 53.6836315 -16.94140625 54.01953125 C-19 54 -19 54 -21 53 C-21.33 55.97 -21.66 58.94 -22 62 C-24.97 62 -27.94 62 -31 62 C-31.495 54.575 -31.495 54.575 -32 47 C-33.1446875 48.4540625 -33.1446875 48.4540625 -34.3125 49.9375 C-36.26748815 52.42086332 -36.85650159 52.9521672 -40 54 C-44.77158838 54.55441313 -48.15293862 54.42353069 -52.5 52.25 C-54.93806165 50.05574452 -55.77069943 49.21020798 -56 46 C-56.66 46 -57.32 46 -58 46 C-58.0928125 47.1446875 -58.0928125 47.1446875 -58.1875 48.3125 C-59 51 -59 51 -60.9375 52.8125 C-66.28561993 54.88626079 -71.69065871 54.96222554 -77 52.75 C-79.06131195 50.94635204 -80.03441599 49.54563057 -81 47 C-81.66 47 -82.32 47 -83 47 C-83.0825 47.598125 -83.165 48.19625 -83.25 48.8125 C-84.26134211 51.76224781 -85.24412147 52.54953762 -88 54 C-94.15151515 54.42424242 -94.15151515 54.42424242 -97 53 C-97.33 55.97 -97.66 58.94 -98 62 C-100.97 62 -103.94 62 -107 62 C-107 51.44 -107 40.88 -107 30 C-103.33333333 30 -99.66666667 30 -96 30 C-94.1128125 29.87625 -94.1128125 29.87625 -92.1875 29.75 C-88.8447691 29.73784461 -88.03595759 29.97704835 -85.0625 31.875 C-83 34 -83 34 -82 36 C-81.05125 35.195625 -80.1025 34.39125 -79.125 33.5625 C-75.15216058 30.1942231 -72.50012599 29.65650019 -67.32421875 29.71484375 C-63.74920647 30.1534587 -61.6668747 31.65835392 -59 34 C-57.625 36.25 -57.625 36.25 -57 38 C-56.4225 37.05125 -55.845 36.1025 -55.25 35.125 C-53.04414276 32.06130939 -52.35786999 31.27659562 -49 30 C-44.39099025 29.42293699 -40.27758057 29.4410585 -36 31.3125 C-34 33 -34 33 -32 36 C-31.67 34.02 -31.34 32.04 -31 30 C-27.33333333 30 -23.66666667 30 -20 30 C-18.05580928 29.87251208 -16.11162852 29.74471688 -14.16796875 29.609375 C-12 30 -12 30 -7 34 C-7 25.42 -7 16.84 -7 8 C-8.32 8 -9.64 8 -11 8 C-11 13.28 -11 18.56 -11 24 C-13.97 24 -16.94 24 -20 24 C-20 16.08 -20 8.16 -20 0 C-16.33333333 0 -12.66666667 0 -9 0 C-5.39297148 -1.20234284 -3.64185324 -1.0405295 0 0 Z M15 7 C12.66608797 9.78114056 12.66608797 9.78114056 13.375 12.6875 C13.58125 13.450625 13.7875 14.21375 14 15 C15.65 15.33 17.3 15.66 19 16 C20.21297649 13.7193293 20.21297649 13.7193293 21 11 C20.23396041 8.7142289 20.23396041 8.7142289 19 7 C17.68 7 16.36 7 15 7 Z M4 16 C4 18.31 4 20.62 4 23 C5.98 23 7.96 23 10 23 C9.38125 22.401875 8.7625 21.80375 8.125 21.1875 C6 19 6 19 4 16 Z M13 23 C13 23.66 13 24.32 13 25 C16.58327753 26.00217064 16.58327753 26.00217064 20 25 C20 24.01 20 23.02 20 22 C17.57202689 22 15.37092995 22.50085685 13 23 Z M4 27 C4 30.63 4 34.26 4 38 C6.77000825 34.67913229 6.77000825 34.67913229 9 31 C7.35 29.68 5.7 28.36 4 27 Z M-97 37 C-98.39287806 38.17036305 -98.39287806 38.17036305 -98.1875 41.4375 C-98.39564928 45.05032721 -98.39564928 45.05032721 -96 47 C-93.21762345 46.59471099 -93.21762345 46.59471099 -91 45 C-90.74994614 42.04182893 -90.74994614 42.04182893 -91 39 C-91.66 38.34 -92.32 37.68 -93 37 C-94.32 37 -95.64 37 -97 37 Z M-72 37 C-72 37.66 -72 38.32 -72 39 C-70.02 39 -68.04 39 -66 39 C-66.33 38.34 -66.66 37.68 -67 37 C-68.65 37 -70.3 37 -72 37 Z M-46 37 C-48.36692966 39.84826598 -48.36692966 39.84826598 -47.625 43.1875 C-47.41875 44.115625 -47.2125 45.04375 -47 46 C-43.95086772 47.01111093 -43.95086772 47.01111093 -41 46 C-41 43.36 -41 40.72 -41 38 C-42.65 37.67 -44.3 37.34 -46 37 Z M-21 37 C-22.39287806 38.17036305 -22.39287806 38.17036305 -22.1875 41.4375 C-22.39564928 45.05032721 -22.39564928 45.05032721 -20 47 C-17.21762345 46.59471099 -17.21762345 46.59471099 -15 45 C-14.74994614 42.04182893 -14.74994614 42.04182893 -15 39 C-15.66 38.34 -16.32 37.68 -17 37 C-18.32 37 -19.64 37 -21 37 Z M15 37 C14.67 37.66 14.34 38.32 14 39 C15.98 39 17.96 39 20 39 C19.67 38.34 19.34 37.68 19 37 C17.68 37 16.36 37 15 37 Z M-6 38 C-6 40.64 -6 43.28 -6 46 C-5.67 46 -5.34 46 -5 46 C-5 43.36 -5 40.72 -5 38 C-5.33 38 -5.66 38 -6 38 Z M-72 45 C-72 45.66 -72 46.32 -72 47 C-70.35 47 -68.7 47 -67 47 C-66.67 46.34 -66.34 45.68 -66 45 C-67.98 45 -69.96 45 -72 45 Z M14 45 C14 45.66 14 46.32 14 47 C15.98 47 17.96 47 20 47 C20 46.34 20 45.68 20 45 C18.02 45 16.04 45 14 45 Z " fill="#FFFFFF" transform="translate(194,38)"/>
<path d="M0 0 C2.5625 2.625 2.5625 2.625 4 5 C4.4125 4.57847656 4.825 4.15695313 5.25 3.72265625 C8.96168357 0.20152787 11.81988753 -1.87689032 17.0078125 -2.1796875 C21.35343726 -1.78772919 24.90273948 -0.09726052 28 3 C28.33 1.68 28.66 0.36 29 -1 C29.79664063 -0.98839844 30.59328125 -0.97679687 31.4140625 -0.96484375 C37.96285123 -0.86927266 37.96285123 -0.86927266 44.4375 -1.6875 C47.85227311 -2.10393574 49.29547595 -1.00907501 52 1 C53 2 53 2 53.11352539 4.04125977 C53.10567017 5.35308228 53.10567017 5.35308228 53.09765625 6.69140625 C53.09282227 8.10776367 53.09282227 8.10776367 53.08789062 9.55273438 C53.07532227 11.04256836 53.07532227 11.04256836 53.0625 12.5625 C53.05798828 13.55958984 53.05347656 14.55667969 53.04882812 15.58398438 C53.03700007 18.05604849 53.02051849 20.52799518 53 23 C50.03 23 47.06 23 44 23 C43.67 17.72 43.34 12.44 43 7 C42.01 7 41.02 7 40 7 C39.67 12.28 39.34 17.56 39 23 C35.7 23 32.4 23 29 23 C28.67 21.35 28.34 19.7 28 18 C27.236875 18.639375 26.47375 19.27875 25.6875 19.9375 C21.47965796 23.16677412 18.21181199 23.43431767 13 23 C9.55534637 21.53758166 6.65773071 19.65773071 4 17 C3.236875 17.804375 2.47375 18.60875 1.6875 19.4375 C-2.05911228 23.00985124 -4.89917545 23.2882216 -10.00390625 23.22265625 C-12.91181809 22.89829035 -14.70731466 21.76864298 -17 20 C-17.52980469 19.59136719 -18.05960938 19.18273437 -18.60546875 18.76171875 C-21.15107795 15.5458371 -20.51867089 11.82770422 -20.4140625 7.890625 C-20 5 -20 5 -17.875 1.875 C-11.71327284 -2.14351772 -6.83610484 -2.8148667 0 0 Z M-10 6 C-11.39287806 7.17036305 -11.39287806 7.17036305 -11.1875 10.4375 C-11.39564928 14.05032721 -11.39564928 14.05032721 -9 16 C-6.91666667 15.83333333 -6.91666667 15.83333333 -5 15 C-4.67 14.34 -4.34 13.68 -4 13 C-1.35139573 12.40644386 1.29197322 12.25790731 4 12 C4 11.01 4 10.02 4 9 C1.03 9 -1.94 9 -5 9 C-5.33 8.01 -5.66 7.02 -6 6 C-7.32 6 -8.64 6 -10 6 Z M14 6 C13.23477199 9.35458155 13.23477199 9.35458155 13 13 C14.29264699 14.96431405 14.29264699 14.96431405 16 16 C17.32 15.34 18.64 14.68 20 14 C20.04241723 11.66705225 20.04092937 9.33297433 20 7 C18.93354885 5.70366379 18.93354885 5.70366379 16.4375 5.9375 C15.633125 5.958125 14.82875 5.97875 14 6 Z " fill="#FFFFFF" transform="translate(20,39)"/>
<path d="M0 0 C3.625 -0.1875 3.625 -0.1875 7 0 C8.125 2.3125 8.125 2.3125 9 5 C8.34 5.99 7.68 6.98 7 8 C7.495 8.495 7.495 8.495 8 9 C8.08737645 10.85369611 8.10698153 12.71067541 8.09765625 14.56640625 C8.09443359 15.69111328 8.09121094 16.81582031 8.08789062 17.97460938 C8.07532227 19.75061523 8.07532227 19.75061523 8.0625 21.5625 C8.05798828 22.75037109 8.05347656 23.93824219 8.04882812 25.16210938 C8.03699675 28.10812226 8.02051287 31.05403681 8 34 C5.03 34 2.06 34 -1 34 C-1.495 32.02 -1.495 32.02 -2 30 C-2.495 30.474375 -2.99 30.94875 -3.5 31.4375 C-6.87038925 33.54399328 -10.08164095 34.14566391 -14 34 C-16.89149729 33.18018851 -19.83329072 32.16670928 -22 30 C-22.33 31.32 -22.66 32.64 -23 34 C-24.45823212 34.0270043 -25.91660675 34.04639787 -27.375 34.0625 C-28.59316406 34.07990234 -28.59316406 34.07990234 -29.8359375 34.09765625 C-32 34 -32 34 -34 33 C-34.9075 33.20625 -35.815 33.4125 -36.75 33.625 C-40.78887789 34.09102437 -42.60235584 33.13340447 -46 31 C-47.20029908 28.59940183 -47.11459743 27.10639351 -47.09765625 24.4296875 C-47.09443359 23.53378906 -47.09121094 22.63789063 -47.08789062 21.71484375 C-47.07951172 20.77769531 -47.07113281 19.84054688 -47.0625 18.875 C-47.05798828 17.93011719 -47.05347656 16.98523438 -47.04882812 16.01171875 C-47.03702375 13.6744523 -47.01908799 11.33721831 -47 9 C-44.03 9 -41.06 9 -38 9 C-37.67 14.28 -37.34 19.56 -37 25 C-35.68 25.33 -34.36 25.66 -33 26 C-33.01160156 24.85660156 -33.02320313 23.71320312 -33.03515625 22.53515625 C-33.04453288 21.04427246 -33.05363321 19.55338691 -33.0625 18.0625 C-33.07087891 17.30775391 -33.07925781 16.55300781 -33.08789062 15.77539062 C-33.09652441 13.85005687 -33.05224333 11.92464419 -33 10 C-32 9 -32 9 -29.93359375 8.90234375 C-28.69802734 8.91974609 -28.69802734 8.91974609 -27.4375 8.9375 C-26.61121094 8.94652344 -25.78492187 8.95554687 -24.93359375 8.96484375 C-24.29550781 8.97644531 -23.65742187 8.98804688 -23 9 C-22.67 9.99 -22.34 10.98 -22 12 C-20.7625 11.2575 -20.7625 11.2575 -19.5 10.5 C-14.39213776 8.31091618 -10.38131357 8.08800757 -5.0625 10.125 C-2.35778677 12.58383021 -2.23815147 14.42772798 -2 18 C-2.99 18.495 -2.99 18.495 -4 19 C-3.34 19.66 -2.68 20.32 -2 21 C-1.83232136 19.04175306 -1.66588795 17.08339945 -1.5 15.125 C-1.4071875 14.03445313 -1.314375 12.94390625 -1.21875 11.8203125 C-0.92536521 8.37279114 -0.92536521 8.37279114 -1.625 5.0625 C-2 3 -2 3 0 0 Z M-23 20 C-23 21.65 -23 23.3 -23 25 C-21.68 24.34 -20.36 23.68 -19 23 C-20.32 22.01 -21.64 21.02 -23 20 Z M-15 25 C-14.67 25.66 -14.34 26.32 -14 27 C-13.01 27 -12.02 27 -11 27 C-11 26.34 -11 25.68 -11 25 C-12.32 25 -13.64 25 -15 25 Z " fill="#FFFFFF" transform="translate(85,0)"/>
<path d="M0 0 C2.97 0 5.94 0 9 0 C9.495 1.98 9.495 1.98 10 4 C10.99 4 11.98 4 13 4 C13 6.31 13 8.62 13 11 C11.68 11 10.36 11 9 11 C9 14.3 9 17.6 9 21 C10.32 21 11.64 21 13 21 C13.04241723 23.33294775 13.04092937 25.66702567 13 28 C12 29 12 29 8.75 29.3125 C4.3161853 28.94301544 3.0161074 28.21202549 0 25 C-0.48828125 21.546875 -0.48828125 21.546875 -0.3125 17.75 C-0.26738281 16.48671875 -0.22226563 15.2234375 -0.17578125 13.921875 C-0.08876953 12.47554687 -0.08876953 12.47554687 0 11 C-0.66 11 -1.32 11 -2 11 C-2 12.32 -2 13.64 -2 15 C-4.97 15 -7.94 15 -11 15 C-11.495 14.01 -11.495 14.01 -12 13 C-14.02463255 12.34786708 -14.02463255 12.34786708 -16 12 C-16 14.64 -16 17.28 -16 20 C-14.68 20.33 -13.36 20.66 -12 21 C-11.34 20.01 -10.68 19.02 -10 18 C-8.0546875 17.70703125 -8.0546875 17.70703125 -5.875 17.8125 C-4.59625 17.874375 -3.3175 17.93625 -2 18 C-2.48979592 24.48979592 -2.48979592 24.48979592 -4.875 26.875 C-9.15300891 29.13982825 -13.23904152 29.54038276 -18 29 C-20.8125 27.625 -20.8125 27.625 -23 26 C-23.99 25.34 -24.98 24.68 -26 24 C-26.763125 24.639375 -27.52625 25.27875 -28.3125 25.9375 C-32.53022177 29.17435625 -35.7825656 29.35372437 -41 29 C-45.22187936 27.37620024 -47.62521542 25.83514061 -50 22 C-50.79828193 17.96867625 -50.90440654 13.82370044 -49.05078125 10.0859375 C-46.53184 6.85978561 -43.98837645 4.83477647 -40 4 C-35.6169373 3.93751234 -32.71553673 4.53788253 -29 6.9375 C-27 9 -27 9 -27 11 C-26.34 11 -25.68 11 -25 11 C-24.835 10.401875 -24.67 9.80375 -24.5 9.1875 C-22.50894607 6.28387969 -20.58750009 5.5139397 -17.30078125 4.40234375 C-13.34671002 3.71088477 -9.70606222 4.54679303 -6 6 C-5.34 6.66 -4.68 7.32 -4 8 C-3.67 6.68 -3.34 5.36 -3 4 C-2.34 4 -1.68 4 -1 4 C-0.67 2.68 -0.34 1.36 0 0 Z M-39 11 C-39.99 12.485 -39.99 12.485 -41 14 C-38.69 14 -36.38 14 -34 14 C-34.66 13.01 -35.32 12.02 -36 11 C-36.99 11 -37.98 11 -39 11 Z M-41 19 C-40.67 19.99 -40.34 20.98 -40 22 C-38.33388095 22.042721 -36.66617115 22.04063832 -35 22 C-34.67 21.67 -34.34 21.34 -34 21 C-31.34536879 20.54540142 -28.67810862 20.29756762 -26 20 C-26 19.67 -26 19.34 -26 19 C-30.95 19 -35.9 19 -41 19 Z " fill="#FFFFFF" transform="translate(149,33)"/>
<path d="M0 0 C2.375 1 2.375 1 4 2 C4.99 1.34 5.98 0.68 7 0 C13.15015974 -0.67092652 13.15015974 -0.67092652 16.375 1.875 C18.71629542 4.93669401 19.12292239 6.56164121 19.09765625 10.3515625 C19.09443359 11.20234375 19.09121094 12.053125 19.08789062 12.9296875 C19.07532227 14.26386719 19.07532227 14.26386719 19.0625 15.625 C19.05798828 16.5221875 19.05347656 17.419375 19.04882812 18.34375 C19.03702591 20.56256648 19.02056155 22.78125018 19 25 C17.52093108 25.02689216 16.04172517 25.04634621 14.5625 25.0625 C13.32693359 25.07990234 13.32693359 25.07990234 12.06640625 25.09765625 C10 25 10 25 9 24 C8.92680379 21.30345146 8.90757463 18.63308542 8.9375 15.9375 C8.94201172 15.17888672 8.94652344 14.42027344 8.95117188 13.63867188 C8.9629932 11.75908129 8.98092922 9.87953101 9 8 C8.01 8.33 7.02 8.66 6 9 C5.90912109 10.60681641 5.90912109 10.60681641 5.81640625 12.24609375 C5.73201463 13.64324391 5.64736594 15.04037857 5.5625 16.4375 C5.52318359 17.14455078 5.48386719 17.85160156 5.44335938 18.58007812 C5.11328125 23.88671875 5.11328125 23.88671875 4 25 C2.1875 25.1328125 2.1875 25.1328125 0 25.125 C-0.721875 25.12757812 -1.44375 25.13015625 -2.1875 25.1328125 C-4 25 -4 25 -5 24 C-5.07319621 21.30345146 -5.09242537 18.63308542 -5.0625 15.9375 C-5.05798828 15.17888672 -5.05347656 14.42027344 -5.04882812 13.63867188 C-5.0370068 11.75908129 -5.01907078 9.87953101 -5 8 C-5.99 8.33 -6.98 8.66 -8 9 C-8.06058594 10.07121094 -8.12117187 11.14242188 -8.18359375 12.24609375 C-8.26798537 13.64324391 -8.35263406 15.04037857 -8.4375 16.4375 C-8.47681641 17.14455078 -8.51613281 17.85160156 -8.55664062 18.58007812 C-8.88671875 23.88671875 -8.88671875 23.88671875 -10 25 C-12.64 25 -15.28 25 -18 25 C-18 17.08 -18 9.16 -18 1 C-14.7 1 -11.4 1 -8 1 C-5.2201184 -0.3899408 -3.0813674 -0.18488204 0 0 Z " fill="#FFFFFF" transform="translate(18,9)"/>
<path d="M0 0 C32.67 0 65.34 0 99 0 C99 1.98 99 3.96 99 6 C66.33 6 33.66 6 0 6 C0 4.02 0 2.04 0 0 Z " fill="#FFFFFF" transform="translate(124,18)"/>
<path d="M0 0 C26.73 0 53.46 0 81 0 C81 2.31 81 4.62 81 7 C54.27 7 27.54 7 0 7 C0 4.69 0 2.38 0 0 Z " fill="#FFFFFF" transform="translate(0,79)"/>
<path d="M0 0 C2.01678988 2.07904542 2.91227203 3.41011588 3.34057617 6.29003906 C3.32486572 7.10698242 3.30915527 7.92392578 3.29296875 8.765625 C3.28330078 9.65507813 3.27363281 10.54453125 3.26367188 11.4609375 C3.23853516 12.38132812 3.21339844 13.30171875 3.1875 14.25 C3.16719727 15.65378906 3.16719727 15.65378906 3.14648438 17.0859375 C3.11120476 19.39087221 3.05739966 21.69551005 3 24 C0.03 24 -2.94 24 -6 24 C-6.33 18.72 -6.66 13.44 -7 8 C-7.99 8 -8.98 8 -10 8 C-10.06058594 9.07121094 -10.12117188 10.14242187 -10.18359375 11.24609375 C-10.26798537 12.64324391 -10.35263406 14.04037857 -10.4375 15.4375 C-10.47681641 16.14455078 -10.51613281 16.85160156 -10.55664062 17.58007812 C-10.88671875 22.88671875 -10.88671875 22.88671875 -12 24 C-14.97 24 -17.94 24 -21 24 C-21 16.08 -21 8.16 -21 0 C-17.33333333 0 -13.66666667 0 -10 0 C-6.20519658 -1.26493447 -3.87641726 -0.89988258 0 0 Z " fill="#FFFFFF" transform="translate(95,38)"/>
<path d="M0 0 C2.6875 1.6875 2.6875 1.6875 4.6875 4.6875 C4.8125 7.375 4.8125 7.375 4.6875 9.6875 C1.7175 9.6875 -1.2525 9.6875 -4.3125 9.6875 C-4.3125 8.6975 -4.3125 7.7075 -4.3125 6.6875 C-5.9625 6.6875 -7.6125 6.6875 -9.3125 6.6875 C-9.3125 9.6575 -9.3125 12.6275 -9.3125 15.6875 C-6.83983235 15.34305119 -6.83983235 15.34305119 -4.3125 14.6875 C-3.9825 14.0275 -3.6525 13.3675 -3.3125 12.6875 C-0.6725 12.6875 1.9675 12.6875 4.6875 12.6875 C5.0283034 15.75473058 4.96648091 17.26296383 3.25 19.875 C-1.55435169 23.27319998 -6.36125757 23.97538823 -12.125 23.125 C-15.97819642 21.38728397 -17.38093053 20.47337616 -19.3125 16.6875 C-20.06417011 11.53429767 -20.16812658 7.2403038 -17.625 2.625 C-12.2289415 -1.89602199 -6.57957786 -2.60700255 0 0 Z " fill="#FFFFFF" transform="translate(113.3125,10.3125)"/>
<path d="M0 0 C2 2 2 2 2.22705078 5.16455078 C2.22673389 6.50817963 2.21542181 7.8518341 2.1953125 9.1953125 C2.1924826 9.90275604 2.18965271 10.61019958 2.18673706 11.33908081 C2.17553137 13.6012251 2.15042679 15.86297515 2.125 18.125 C2.11497067 19.65754637 2.10584474 21.19009894 2.09765625 22.72265625 C2.07559086 26.48192301 2.04105896 30.24089464 2 34 C-0.97 34 -3.94 34 -7 34 C-6.99476318 33.23856689 -6.98952637 32.47713379 -6.98413086 31.69262695 C-6.96330475 28.23259308 -6.95032187 24.77257241 -6.9375 21.3125 C-6.92912109 20.11431641 -6.92074219 18.91613281 -6.91210938 17.68164062 C-6.90888672 16.52470703 -6.90566406 15.36777344 -6.90234375 14.17578125 C-6.89710693 13.11270752 -6.89187012 12.04963379 -6.88647461 10.9543457 C-6.91782981 8.01078988 -6.91782981 8.01078988 -7.57641602 5.22729492 C-8 3 -8 3 -6.875 1.1875 C-4.40774618 -0.37509409 -2.87012296 -0.36796448 0 0 Z " fill="#FFFFFF" transform="translate(171,28)"/>
</svg>
